<svg width="29" height="60" viewBox="0 0 29 60" fill="none" xmlns="http://www.w3.org/2000/svg">
<path fill-rule="evenodd" clip-rule="evenodd" d="M27.0887 55.9435C27.0887 57.1752 26.0866 58.1773 24.8549 58.1773H3.72447C2.49279 58.1773 1.49068 57.1752 1.49068 55.9435V4.09679C1.49068 2.86511 2.49279 1.863 3.72447 1.863H24.8549C26.0866 1.863 27.0887 2.86511 27.0887 4.09679V55.9435ZM24.8549 0.372314H3.72447C1.6677 0.372314 0 2.04002 0 4.09679V55.9435C0 58.0006 1.6677 59.668 3.72447 59.668H24.8549C26.912 59.668 28.5794 58.0006 28.5794 55.9435V4.09679C28.5794 2.04002 26.912 0.372314 24.8549 0.372314ZM25.2836 55.5132C25.2836 55.9701 24.9117 56.342 24.4548 56.342H4.12483C3.66794 56.342 3.29601 55.9701 3.29601 55.5132V4.55528C3.29601 4.09839 3.66794 3.72646 4.12483 3.72646H24.4548C24.9117 3.72646 25.2836 4.09839 25.2836 4.55528V55.5132ZM24.4548 2.98112H4.12483C3.25539 2.98112 2.55067 3.68622 2.55067 4.55528V55.5132C2.55067 56.3826 3.25539 57.0873 4.12483 57.0873H24.4548C25.3242 57.0873 26.0289 56.3826 26.0289 55.5132V4.55528C26.0289 3.68622 25.3242 2.98112 24.4548 2.98112ZM5.15933 6.7331C5.15933 7.36328 5.67212 7.87571 6.30231 7.87571C6.9325 7.87571 7.44529 7.36328 7.44529 6.7331C7.44529 6.10254 6.9325 5.58974 6.30231 5.58974C5.67212 5.58974 5.15933 6.10254 5.15933 6.7331ZM4.41399 6.7331C4.41399 5.68999 5.25958 4.8444 6.30231 4.8444C7.34504 4.8444 8.19063 5.68999 8.19063 6.7331C8.19063 7.77583 7.34504 8.62105 6.30231 8.62105C5.25958 8.62105 4.41399 7.77583 4.41399 6.7331Z" fill="#BEE626"/>
</svg>
