<svg width="60" height="41" viewBox="0 0 60 41" fill="none" xmlns="http://www.w3.org/2000/svg">
<path fill-rule="evenodd" clip-rule="evenodd" d="M55.5317 38.7806C56.9814 38.7806 58.1612 37.6011 58.1612 36.1511V4.49268C58.1612 3.04299 56.9814 1.86349 55.5317 1.86349H4.11988C2.67019 1.86349 1.49068 3.04299 1.49068 4.49268V36.1511C1.49068 37.6011 2.67019 38.7806 4.11988 38.7806H55.5317ZM4.11988 0.372803H55.5317C57.8072 0.372803 59.6519 2.21715 59.6519 4.49268V36.1511C59.6519 38.4266 57.8072 40.2713 55.5317 40.2713H4.11988C1.84472 40.2713 0 38.4266 0 36.1511V4.49268C0 2.21715 1.84472 0.372803 4.11988 0.372803ZM55.1389 37.3272C55.8585 37.3272 56.4444 36.7413 56.4444 36.0217V4.71773C56.4444 3.99811 55.8585 3.41264 55.1389 3.41264H4.51308C3.79308 3.41264 3.20761 3.99811 3.20761 4.71773V36.0217C3.20761 36.7413 3.79308 37.3272 4.51308 37.3272H55.1389ZM4.51308 2.6673H55.1389C56.2715 2.6673 57.1897 3.58519 57.1897 4.71773V36.0217C57.1897 37.1543 56.2715 38.0725 55.1389 38.0725H4.51308C3.38016 38.0725 2.46227 37.1543 2.46227 36.0217V4.71773C2.46227 3.58519 3.38016 2.6673 4.51308 2.6673Z" fill="#16DED8"/>
</svg>
