<svg width="29" height="60" viewBox="0 0 29 60" fill="none" xmlns="http://www.w3.org/2000/svg">
<path fill-rule="evenodd" clip-rule="evenodd" d="M3.72447 58.1773H24.8549C26.0866 58.1773 27.0887 57.1752 27.0887 55.9435V54.5072C26.5424 55.1154 25.7527 55.5004 24.8728 55.5004H3.70658C2.82671 55.5004 2.03702 55.1154 1.49068 54.5072V55.9435C1.49068 57.1752 2.49279 58.1773 3.72447 58.1773ZM24.8549 1.863H3.72447C2.49279 1.863 1.49068 2.86511 1.49068 4.09679V5.53306C2.03702 4.92486 2.82671 4.53989 3.70658 4.53989H24.8728C25.7527 4.53989 26.5424 4.92486 27.0887 5.53306V4.09679C27.0887 2.86511 26.0866 1.863 24.8549 1.863ZM3.70658 5.28523C2.57031 5.28523 1.63379 6.13306 1.49068 7.2302V52.8101C1.63379 53.9072 2.57031 54.755 3.70658 54.755H24.8728C26.0091 54.755 26.9452 53.9072 27.0887 52.8101V7.2302C26.9452 6.13306 26.0091 5.28523 24.8728 5.28523H3.70658ZM3.72447 0.372314H24.8549C26.912 0.372314 28.5794 2.04002 28.5794 4.09679V55.9435C28.5794 58.0003 26.912 59.668 24.8549 59.668H3.72447C1.66733 59.668 0 58.0003 0 55.9435V4.09679C0 2.04002 1.66733 0.372314 3.72447 0.372314ZM16.6592 3.37064H11.513C11.2935 3.37064 11.1157 3.1925 11.1157 2.97337C11.1157 2.75387 11.2935 2.57573 11.513 2.57573H16.6592C16.8787 2.57573 17.0565 2.75387 17.0565 2.97337C17.0565 3.1925 16.8787 3.37064 16.6592 3.37064Z" fill="#039BFF"/>
</svg>
