<svg width="32" height="50" viewBox="0 0 32 50" fill="none" xmlns="http://www.w3.org/2000/svg">
<path fill-rule="evenodd" clip-rule="evenodd" d="M23.2946 45.0831L23.2948 45.0877C23.3152 45.7213 23.3328 46.2687 23.304 46.6861C23.1956 48.2563 21.8893 48.3804 21.6456 48.3891H15.9644H10.2832C10.0396 48.3804 8.73322 48.2563 8.62483 46.6861C8.59604 46.2687 8.61367 45.7213 8.63408 45.0877L8.63423 45.0831C8.6906 43.3512 8.76376 41.0586 7.9943 38.8895C10.3403 40.2445 13.0607 41.0234 15.9644 41.0234C18.8685 41.0234 21.5886 40.2445 23.9346 38.8895C23.1654 41.0583 23.2386 43.3512 23.2946 45.0831ZM1.34228 25.0593C1.34228 16.9965 7.90168 10.4368 15.9644 10.4368C24.0272 10.4368 30.5866 16.9965 30.5866 25.0593C30.5866 29.0912 28.946 32.7475 26.2973 35.3952L26.2839 35.3797C26.0621 35.5757 25.8577 35.7784 25.6664 35.9861C23.0832 38.2824 19.6849 39.6811 15.9644 39.6811C12.2443 39.6811 8.84597 38.2824 6.26242 35.9861C6.07148 35.7784 5.86678 35.5757 5.64497 35.3797L5.63154 35.3952C2.98289 32.7475 1.34228 29.0912 1.34228 25.0593ZM8.63423 4.98377L8.63408 4.97912C8.61367 4.34552 8.59604 3.79819 8.62483 3.38075C8.73322 1.81062 10.0396 1.68646 10.2832 1.67773H15.9644H21.6456C21.8893 1.68646 23.1956 1.81062 23.304 3.38075C23.3328 3.7982 23.3152 4.34555 23.2948 4.97916L23.2946 4.98377C23.2379 6.7331 23.1641 9.05424 23.9584 11.2425C21.607 9.87907 18.8782 9.09451 15.9644 9.09451C13.051 9.09451 10.3221 9.87907 7.97081 11.2422C8.76476 9.05424 8.69094 6.7331 8.63423 4.98377ZM31.9289 25.0593C31.9289 20.6073 30.105 16.5831 27.1664 13.6878L27.1725 13.6808C24.4343 11.263 24.551 7.65909 24.6362 5.02722L24.6362 5.02706L24.637 5.00428C24.6581 4.34211 24.6765 3.7692 24.6433 3.28813C24.4846 0.992832 22.6211 0.353234 21.6581 0.335785L15.9644 0.335449L10.2708 0.335785C9.30772 0.353234 7.44429 0.992832 7.28591 3.28813C7.25235 3.77471 7.27114 4.35525 7.29295 5.02706L7.29296 5.02723C7.37819 7.65909 7.49491 11.263 4.75671 13.6808L4.76275 13.6878C1.82383 16.5831 0 20.6073 0 25.0593C0 29.7918 2.06141 34.0415 5.33289 36.965C7.47181 39.3536 7.37148 42.6103 7.29295 45.0398C7.27114 45.7116 7.25235 46.2922 7.28591 46.7787C7.44429 49.074 9.30772 49.7136 10.2708 49.7311L15.9644 49.7314L21.6581 49.7311C22.6211 49.7136 24.4846 49.074 24.6433 46.7787C24.6765 46.2977 24.6581 45.7248 24.637 45.0626L24.6362 45.0398C24.5574 42.6099 24.457 39.3536 26.5963 36.965C29.8678 34.0415 31.9289 29.7918 31.9289 25.0593ZM15.9645 12.1143C23.1024 12.1143 28.9091 17.9213 28.9091 25.0592C28.9091 32.1968 23.1024 38.0039 15.9645 38.0039C8.82658 38.0039 3.01987 32.1968 3.01987 25.0592C3.01987 17.9213 8.82658 12.1143 15.9645 12.1143ZM15.9645 38.675C23.4843 38.675 29.5803 32.579 29.5803 25.0592C29.5803 17.5394 23.4843 11.4431 15.9645 11.4431C8.4447 11.4431 2.34872 17.5394 2.34872 25.0592C2.34872 32.579 8.4447 38.675 15.9645 38.675ZM15.7211 25.824C15.564 25.8314 15.405 25.7767 15.2852 25.6569L11.0754 21.4471C10.8493 21.221 10.8493 20.8542 11.0754 20.6283C11.3016 20.4022 11.6684 20.4022 11.8946 20.6283L15.7211 24.4548L22.9097 17.2659C23.1358 17.0397 23.5026 17.0397 23.7288 17.2659C23.9546 17.4921 23.9546 17.8589 23.7288 18.085L16.157 25.6569C16.0368 25.7767 15.8778 25.8314 15.7211 25.824Z" fill="#36E828"/>
</svg>
