<svg width="60" height="40" viewBox="0 0 60 40" fill="none" xmlns="http://www.w3.org/2000/svg">
<path fill-rule="evenodd" clip-rule="evenodd" d="M58.7755 33.0612H1.22449V1.22449H58.7755V33.0612ZM31.9953 38.1646H28.0047V34.2857H31.9953V38.1646ZM0.632449 0H59.3675C59.7168 0 60 0.283163 60 0.632449V33.653C60 34.0022 59.7168 34.2857 59.3675 34.2857H33.2207V38.1646H44.6835C45.0324 38.1646 45.3159 38.4478 45.3159 38.797C45.3159 39.1466 45.0324 39.4298 44.6835 39.4298H15.3165C14.9672 39.4298 14.6841 39.1466 14.6841 38.797C14.6841 38.4478 14.9672 38.1646 15.3165 38.1646H26.7793V34.2857H0.632449C0.283163 34.2857 0 34.0022 0 33.653V0.632449C0 0.283163 0.283163 0 0.632449 0ZM56.8053 31.2297H3.19439V3.05602H56.8053V31.2297ZM57.4175 31.8416H2.58214V2.44347H57.4175V31.8416Z" fill="#28D882"/>
</svg>
