<svg width="298" height="308" viewBox="0 0 298 308" fill="none" xmlns="http://www.w3.org/2000/svg">
<g filter="url(#filter0_d)">
<path d="M257.438 138C263.689 138 268.734 132.782 267.887 126.588C260.619 73.4445 218.556 31.3818 165.413 24.1133C159.219 23.2662 154 28.3108 154 34.5626V127C154 133.075 158.925 138 165 138H257.438Z" fill="#333333"/>
</g>
<g filter="url(#filter1_d)">
<path d="M267.887 169.413C268.734 163.219 263.689 158 257.438 158H165C158.925 158 154 162.925 154 169V261.438C154 267.69 159.219 272.734 165.413 271.887C218.556 264.619 260.619 222.556 267.887 169.413Z" fill="#499BFF"/>
<path d="M132.587 271.887C138.782 272.734 144 267.69 144 261.438V169C144 162.925 139.075 158 133 158H40.5624C34.3105 158 29.2659 163.219 30.1131 169.413C37.3815 222.556 79.4442 264.619 132.587 271.887Z" fill="#499BFF"/>
<path d="M144 44.5626C144 38.3108 138.782 33.2662 132.587 34.1133C79.4442 41.3818 37.3815 83.4445 30.1131 136.588C29.2659 142.782 34.3105 148 40.5624 148H133C139.075 148 144 143.075 144 137V44.5626Z" fill="#499BFF"/>
</g>
<defs>
<filter id="filter0_d" x="124" y="0.0205078" width="173.98" height="173.98" filterUnits="userSpaceOnUse" color-interpolation-filters="sRGB">
<feFlood flood-opacity="0" result="BackgroundImageFix"/>
<feColorMatrix in="SourceAlpha" type="matrix" values="0 0 0 0 0 0 0 0 0 0 0 0 0 0 0 0 0 0 127 0"/>
<feOffset dy="6"/>
<feGaussianBlur stdDeviation="15"/>
<feColorMatrix type="matrix" values="0 0 0 0 0 0 0 0 0 0 0 0 0 0 0 0 0 0 0.24 0"/>
<feBlend mode="normal" in2="BackgroundImageFix" result="effect1_dropShadow"/>
<feBlend mode="normal" in="SourceGraphic" in2="effect1_dropShadow" result="shape"/>
</filter>
<filter id="filter1_d" x="0.0200195" y="10.0205" width="297.96" height="297.96" filterUnits="userSpaceOnUse" color-interpolation-filters="sRGB">
<feFlood flood-opacity="0" result="BackgroundImageFix"/>
<feColorMatrix in="SourceAlpha" type="matrix" values="0 0 0 0 0 0 0 0 0 0 0 0 0 0 0 0 0 0 127 0"/>
<feOffset dy="6"/>
<feGaussianBlur stdDeviation="15"/>
<feColorMatrix type="matrix" values="0 0 0 0 0.286275 0 0 0 0 0.607843 0 0 0 0 1 0 0 0 0.4 0"/>
<feBlend mode="normal" in2="BackgroundImageFix" result="effect1_dropShadow"/>
<feBlend mode="normal" in="SourceGraphic" in2="effect1_dropShadow" result="shape"/>
</filter>
</defs>
</svg>
